<mxfile host="app.diagrams.net" agent="Mozilla/5.0 (Windows NT 10.0; Win64; x64; rv:139.0) Gecko/20100101 Firefox/139.0" version="26.2.14">
  <diagram name="Page-1" id="i5l6VT4lKgJUg7w3LFYh">
    <mxGraphModel dx="1650" dy="1967" grid="1" gridSize="10" guides="1" tooltips="1" connect="1" arrows="1" fold="1" page="1" pageScale="1" pageWidth="850" pageHeight="1100" math="0" shadow="0">
      <root>
        <mxCell id="0" />
        <mxCell id="1" parent="0" />
        <mxCell id="YQpQNmu5JtdZSvHhbprt-42" style="edgeStyle=orthogonalEdgeStyle;rounded=0;orthogonalLoop=1;jettySize=auto;html=1;exitX=0.5;exitY=1;exitDx=0;exitDy=0;exitPerimeter=0;entryX=0.5;entryY=0;entryDx=0;entryDy=0;" edge="1" parent="1" source="YQpQNmu5JtdZSvHhbprt-36" target="YQpQNmu5JtdZSvHhbprt-41">
          <mxGeometry relative="1" as="geometry" />
        </mxCell>
        <mxCell id="YQpQNmu5JtdZSvHhbprt-36" value="Start" style="strokeWidth=2;html=1;shape=mxgraph.flowchart.terminator;whiteSpace=wrap;" vertex="1" parent="1">
          <mxGeometry x="700" width="100" height="60" as="geometry" />
        </mxCell>
        <mxCell id="YQpQNmu5JtdZSvHhbprt-47" value="Low&lt;br&gt;Confidence" style="edgeStyle=orthogonalEdgeStyle;rounded=0;orthogonalLoop=1;jettySize=auto;html=1;" edge="1" parent="1" source="YQpQNmu5JtdZSvHhbprt-38" target="YQpQNmu5JtdZSvHhbprt-46">
          <mxGeometry relative="1" as="geometry" />
        </mxCell>
        <mxCell id="YQpQNmu5JtdZSvHhbprt-38" value="Is Result Confident?" style="strokeWidth=2;html=1;shape=mxgraph.flowchart.decision;whiteSpace=wrap;" vertex="1" parent="1">
          <mxGeometry x="675" y="150" width="150" height="100" as="geometry" />
        </mxCell>
        <mxCell id="YQpQNmu5JtdZSvHhbprt-73" style="edgeStyle=orthogonalEdgeStyle;rounded=0;orthogonalLoop=1;jettySize=auto;html=1;entryX=1;entryY=0.75;entryDx=0;entryDy=0;dashed=1;fillColor=#f5f5f5;strokeColor=#666666;" edge="1" parent="1" source="YQpQNmu5JtdZSvHhbprt-41" target="YQpQNmu5JtdZSvHhbprt-69">
          <mxGeometry relative="1" as="geometry">
            <Array as="points">
              <mxPoint x="1310" y="107" />
              <mxPoint x="1310" y="487" />
            </Array>
          </mxGeometry>
        </mxCell>
        <mxCell id="YQpQNmu5JtdZSvHhbprt-83" style="edgeStyle=orthogonalEdgeStyle;rounded=0;orthogonalLoop=1;jettySize=auto;html=1;exitX=1;exitY=0.25;exitDx=0;exitDy=0;entryX=1;entryY=1;entryDx=0;entryDy=0;fillColor=#f8cecc;strokeColor=#b85450;dashed=1;" edge="1" parent="1" source="YQpQNmu5JtdZSvHhbprt-41" target="YQpQNmu5JtdZSvHhbprt-69">
          <mxGeometry relative="1" as="geometry">
            <Array as="points">
              <mxPoint x="1320" y="94" />
              <mxPoint x="1320" y="500" />
            </Array>
          </mxGeometry>
        </mxCell>
        <mxCell id="YQpQNmu5JtdZSvHhbprt-41" value="Classify with CNN" style="whiteSpace=wrap;strokeWidth=2;" vertex="1" parent="1">
          <mxGeometry x="668.75" y="80" width="162.5" height="54" as="geometry" />
        </mxCell>
        <mxCell id="YQpQNmu5JtdZSvHhbprt-43" style="edgeStyle=orthogonalEdgeStyle;rounded=0;orthogonalLoop=1;jettySize=auto;html=1;exitX=0.5;exitY=1;exitDx=0;exitDy=0;entryX=0.5;entryY=0;entryDx=0;entryDy=0;entryPerimeter=0;" edge="1" parent="1" source="YQpQNmu5JtdZSvHhbprt-41" target="YQpQNmu5JtdZSvHhbprt-38">
          <mxGeometry relative="1" as="geometry" />
        </mxCell>
        <mxCell id="YQpQNmu5JtdZSvHhbprt-44" value="High Confidence" style="edgeStyle=orthogonalEdgeStyle;rounded=0;orthogonalLoop=1;jettySize=auto;html=1;exitX=0.5;exitY=1;exitDx=0;exitDy=0;exitPerimeter=0;entryX=0.5;entryY=0;entryDx=0;entryDy=0;entryPerimeter=0;" edge="1" parent="1" source="YQpQNmu5JtdZSvHhbprt-38">
          <mxGeometry relative="1" as="geometry">
            <mxPoint x="750" y="420" as="targetPoint" />
          </mxGeometry>
        </mxCell>
        <mxCell id="YQpQNmu5JtdZSvHhbprt-49" value="Yes" style="edgeStyle=orthogonalEdgeStyle;rounded=0;orthogonalLoop=1;jettySize=auto;html=1;entryX=0;entryY=0.5;entryDx=0;entryDy=0;" edge="1" parent="1" source="YQpQNmu5JtdZSvHhbprt-46" target="YQpQNmu5JtdZSvHhbprt-48">
          <mxGeometry relative="1" as="geometry" />
        </mxCell>
        <mxCell id="YQpQNmu5JtdZSvHhbprt-53" value="No" style="edgeStyle=orthogonalEdgeStyle;rounded=0;orthogonalLoop=1;jettySize=auto;html=1;" edge="1" parent="1" source="YQpQNmu5JtdZSvHhbprt-46" target="YQpQNmu5JtdZSvHhbprt-51">
          <mxGeometry x="-0.0706" relative="1" as="geometry">
            <mxPoint as="offset" />
          </mxGeometry>
        </mxCell>
        <mxCell id="YQpQNmu5JtdZSvHhbprt-46" value="Is Barcode Present?" style="strokeWidth=2;html=1;shape=mxgraph.flowchart.decision;whiteSpace=wrap;fillColor=#dae8fc;strokeColor=#6c8ebf;" vertex="1" parent="1">
          <mxGeometry x="910" y="150" width="150" height="100" as="geometry" />
        </mxCell>
        <mxCell id="YQpQNmu5JtdZSvHhbprt-54" style="edgeStyle=orthogonalEdgeStyle;rounded=0;orthogonalLoop=1;jettySize=auto;html=1;entryX=1;entryY=0.5;entryDx=0;entryDy=0;" edge="1" parent="1" source="YQpQNmu5JtdZSvHhbprt-48" target="YQpQNmu5JtdZSvHhbprt-51">
          <mxGeometry relative="1" as="geometry">
            <Array as="points">
              <mxPoint x="1190" y="320" />
            </Array>
          </mxGeometry>
        </mxCell>
        <mxCell id="YQpQNmu5JtdZSvHhbprt-71" style="edgeStyle=orthogonalEdgeStyle;rounded=0;orthogonalLoop=1;jettySize=auto;html=1;entryX=1;entryY=0.5;entryDx=0;entryDy=0;dashed=1;fillColor=#f5f5f5;strokeColor=#666666;" edge="1" parent="1" source="YQpQNmu5JtdZSvHhbprt-48" target="YQpQNmu5JtdZSvHhbprt-69">
          <mxGeometry relative="1" as="geometry">
            <Array as="points">
              <mxPoint x="1300" y="200" />
              <mxPoint x="1300" y="473" />
            </Array>
          </mxGeometry>
        </mxCell>
        <mxCell id="YQpQNmu5JtdZSvHhbprt-48" value="Lookup barcode" style="whiteSpace=wrap;strokeWidth=2;fillColor=#dae8fc;strokeColor=#6c8ebf;" vertex="1" parent="1">
          <mxGeometry x="1113" y="173" width="162.5" height="54" as="geometry" />
        </mxCell>
        <mxCell id="YQpQNmu5JtdZSvHhbprt-68" value="" style="edgeStyle=orthogonalEdgeStyle;rounded=0;orthogonalLoop=1;jettySize=auto;html=1;" edge="1" parent="1" source="YQpQNmu5JtdZSvHhbprt-51" target="YQpQNmu5JtdZSvHhbprt-67">
          <mxGeometry relative="1" as="geometry" />
        </mxCell>
        <mxCell id="YQpQNmu5JtdZSvHhbprt-72" style="edgeStyle=orthogonalEdgeStyle;rounded=0;orthogonalLoop=1;jettySize=auto;html=1;entryX=0;entryY=0.25;entryDx=0;entryDy=0;dashed=1;fillColor=#f5f5f5;strokeColor=#666666;exitX=0;exitY=0.5;exitDx=0;exitDy=0;" edge="1" parent="1" source="YQpQNmu5JtdZSvHhbprt-67" target="YQpQNmu5JtdZSvHhbprt-69">
          <mxGeometry relative="1" as="geometry">
            <Array as="points">
              <mxPoint x="904" y="410" />
              <mxPoint x="870" y="410" />
              <mxPoint x="870" y="460" />
            </Array>
          </mxGeometry>
        </mxCell>
        <mxCell id="YQpQNmu5JtdZSvHhbprt-51" value="Perform OCR" style="whiteSpace=wrap;strokeWidth=2;fillColor=#dae8fc;strokeColor=#6c8ebf;" vertex="1" parent="1">
          <mxGeometry x="903.75" y="293" width="162.5" height="54" as="geometry" />
        </mxCell>
        <mxCell id="YQpQNmu5JtdZSvHhbprt-64" value="" style="edgeStyle=orthogonalEdgeStyle;rounded=0;orthogonalLoop=1;jettySize=auto;html=1;" edge="1" parent="1" source="YQpQNmu5JtdZSvHhbprt-55" target="YQpQNmu5JtdZSvHhbprt-56">
          <mxGeometry relative="1" as="geometry" />
        </mxCell>
        <mxCell id="YQpQNmu5JtdZSvHhbprt-55" value="&lt;div&gt;&lt;br&gt;&lt;/div&gt;&lt;div&gt;Correct Result?&lt;/div&gt;" style="html=1;strokeWidth=2;shape=manualInput;whiteSpace=wrap;rounded=1;size=26;arcSize=11;" vertex="1" parent="1">
          <mxGeometry x="700" y="410" width="100" height="60" as="geometry" />
        </mxCell>
        <mxCell id="YQpQNmu5JtdZSvHhbprt-58" value="" style="edgeStyle=orthogonalEdgeStyle;rounded=0;orthogonalLoop=1;jettySize=auto;html=1;" edge="1" parent="1" source="YQpQNmu5JtdZSvHhbprt-56" target="YQpQNmu5JtdZSvHhbprt-57">
          <mxGeometry relative="1" as="geometry" />
        </mxCell>
        <mxCell id="YQpQNmu5JtdZSvHhbprt-59" value="Yes" style="edgeLabel;html=1;align=center;verticalAlign=middle;resizable=0;points=[];" vertex="1" connectable="0" parent="YQpQNmu5JtdZSvHhbprt-58">
          <mxGeometry x="-0.3595" y="1" relative="1" as="geometry">
            <mxPoint as="offset" />
          </mxGeometry>
        </mxCell>
        <mxCell id="YQpQNmu5JtdZSvHhbprt-62" value="No" style="edgeStyle=orthogonalEdgeStyle;rounded=0;orthogonalLoop=1;jettySize=auto;html=1;" edge="1" parent="1" source="YQpQNmu5JtdZSvHhbprt-56" target="YQpQNmu5JtdZSvHhbprt-61">
          <mxGeometry relative="1" as="geometry" />
        </mxCell>
        <mxCell id="YQpQNmu5JtdZSvHhbprt-81" style="edgeStyle=orthogonalEdgeStyle;rounded=0;orthogonalLoop=1;jettySize=auto;html=1;entryX=0.25;entryY=1;entryDx=0;entryDy=0;fillColor=#f8cecc;strokeColor=#b85450;" edge="1" parent="1" source="YQpQNmu5JtdZSvHhbprt-56" target="YQpQNmu5JtdZSvHhbprt-61">
          <mxGeometry relative="1" as="geometry">
            <Array as="points">
              <mxPoint x="850" y="560" />
              <mxPoint x="850" y="740" />
              <mxPoint x="511" y="740" />
            </Array>
          </mxGeometry>
        </mxCell>
        <mxCell id="YQpQNmu5JtdZSvHhbprt-82" value="Yes&lt;br&gt;(Using RL)" style="edgeLabel;html=1;align=center;verticalAlign=middle;resizable=0;points=[];fontStyle=2;fontColor=#B85450;" vertex="1" connectable="0" parent="YQpQNmu5JtdZSvHhbprt-81">
          <mxGeometry x="-0.8101" y="-1" relative="1" as="geometry">
            <mxPoint as="offset" />
          </mxGeometry>
        </mxCell>
        <mxCell id="YQpQNmu5JtdZSvHhbprt-56" value="Is Result Correct?" style="strokeWidth=2;html=1;shape=mxgraph.flowchart.decision;whiteSpace=wrap;" vertex="1" parent="1">
          <mxGeometry x="675" y="510" width="150" height="100" as="geometry" />
        </mxCell>
        <mxCell id="YQpQNmu5JtdZSvHhbprt-57" value="End" style="strokeWidth=2;html=1;shape=mxgraph.flowchart.terminator;whiteSpace=wrap;" vertex="1" parent="1">
          <mxGeometry x="700" y="650" width="100" height="60" as="geometry" />
        </mxCell>
        <mxCell id="YQpQNmu5JtdZSvHhbprt-66" value="" style="edgeStyle=orthogonalEdgeStyle;rounded=0;orthogonalLoop=1;jettySize=auto;html=1;dashed=1;fillColor=#f5f5f5;strokeColor=#666666;" edge="1" parent="1" source="YQpQNmu5JtdZSvHhbprt-61" target="YQpQNmu5JtdZSvHhbprt-65">
          <mxGeometry relative="1" as="geometry" />
        </mxCell>
        <mxCell id="YQpQNmu5JtdZSvHhbprt-61" value="Update system" style="whiteSpace=wrap;strokeWidth=2;fillColor=#f8cecc;strokeColor=#b85450;" vertex="1" parent="1">
          <mxGeometry x="470" y="533" width="162.5" height="54" as="geometry" />
        </mxCell>
        <mxCell id="YQpQNmu5JtdZSvHhbprt-63" style="edgeStyle=orthogonalEdgeStyle;rounded=0;orthogonalLoop=1;jettySize=auto;html=1;entryX=0;entryY=0.5;entryDx=0;entryDy=0;entryPerimeter=0;" edge="1" parent="1" source="YQpQNmu5JtdZSvHhbprt-61" target="YQpQNmu5JtdZSvHhbprt-57">
          <mxGeometry relative="1" as="geometry">
            <Array as="points">
              <mxPoint x="550" y="680" />
            </Array>
          </mxGeometry>
        </mxCell>
        <mxCell id="YQpQNmu5JtdZSvHhbprt-74" style="edgeStyle=orthogonalEdgeStyle;rounded=0;orthogonalLoop=1;jettySize=auto;html=1;entryX=0;entryY=0.5;entryDx=0;entryDy=0;dashed=1;fillColor=#f5f5f5;strokeColor=#666666;" edge="1" parent="1" source="YQpQNmu5JtdZSvHhbprt-65" target="YQpQNmu5JtdZSvHhbprt-41">
          <mxGeometry relative="1" as="geometry" />
        </mxCell>
        <mxCell id="YQpQNmu5JtdZSvHhbprt-65" value="CNN" style="strokeWidth=2;html=1;shape=mxgraph.flowchart.database;whiteSpace=wrap;fillColor=#f5f5f5;fontColor=#333333;strokeColor=#666666;" vertex="1" parent="1">
          <mxGeometry x="521.25" y="77" width="60" height="60" as="geometry" />
        </mxCell>
        <mxCell id="YQpQNmu5JtdZSvHhbprt-70" value="" style="edgeStyle=orthogonalEdgeStyle;rounded=0;orthogonalLoop=1;jettySize=auto;html=1;" edge="1" parent="1" source="YQpQNmu5JtdZSvHhbprt-67" target="YQpQNmu5JtdZSvHhbprt-69">
          <mxGeometry relative="1" as="geometry" />
        </mxCell>
        <mxCell id="YQpQNmu5JtdZSvHhbprt-67" value="Find matches relevant to text" style="whiteSpace=wrap;strokeWidth=2;fillColor=#dae8fc;strokeColor=#6c8ebf;" vertex="1" parent="1">
          <mxGeometry x="903.75" y="370" width="162.5" height="54" as="geometry" />
        </mxCell>
        <mxCell id="YQpQNmu5JtdZSvHhbprt-75" style="edgeStyle=orthogonalEdgeStyle;rounded=0;orthogonalLoop=1;jettySize=auto;html=1;exitX=0;exitY=0.75;exitDx=0;exitDy=0;entryX=1;entryY=0.5;entryDx=0;entryDy=0;" edge="1" parent="1" source="YQpQNmu5JtdZSvHhbprt-69" target="YQpQNmu5JtdZSvHhbprt-55">
          <mxGeometry relative="1" as="geometry">
            <Array as="points">
              <mxPoint x="904" y="473" />
              <mxPoint x="852" y="473" />
              <mxPoint x="852" y="440" />
            </Array>
          </mxGeometry>
        </mxCell>
        <mxCell id="YQpQNmu5JtdZSvHhbprt-69" value="Generate consensus" style="whiteSpace=wrap;strokeWidth=2;" vertex="1" parent="1">
          <mxGeometry x="903.75" y="446" width="162.5" height="54" as="geometry" />
        </mxCell>
        <mxCell id="YQpQNmu5JtdZSvHhbprt-77" style="edgeStyle=orthogonalEdgeStyle;rounded=0;orthogonalLoop=1;jettySize=auto;html=1;entryX=1;entryY=0.5;entryDx=0;entryDy=0;fillColor=#f5f5f5;strokeColor=#666666;dashed=1;" edge="1" parent="1" source="YQpQNmu5JtdZSvHhbprt-76" target="YQpQNmu5JtdZSvHhbprt-67">
          <mxGeometry relative="1" as="geometry" />
        </mxCell>
        <mxCell id="YQpQNmu5JtdZSvHhbprt-80" style="edgeStyle=orthogonalEdgeStyle;rounded=0;orthogonalLoop=1;jettySize=auto;html=1;exitX=0.5;exitY=0;exitDx=0;exitDy=0;entryX=0.75;entryY=1;entryDx=0;entryDy=0;fillColor=#f5f5f5;strokeColor=#666666;dashed=1;" edge="1" parent="1" source="YQpQNmu5JtdZSvHhbprt-76" target="YQpQNmu5JtdZSvHhbprt-48">
          <mxGeometry relative="1" as="geometry">
            <Array as="points">
              <mxPoint x="1235" y="377" />
            </Array>
          </mxGeometry>
        </mxCell>
        <mxCell id="YQpQNmu5JtdZSvHhbprt-76" value="&lt;div&gt;Discogs,&lt;/div&gt;&lt;div&gt;Spotify, etc.&lt;/div&gt;" style="shape=parallelogram;html=1;strokeWidth=2;perimeter=parallelogramPerimeter;whiteSpace=wrap;rounded=1;arcSize=12;size=0.23;fillColor=#f5f5f5;fontColor=#333333;strokeColor=#666666;" vertex="1" parent="1">
          <mxGeometry x="1175" y="377" width="100" height="40" as="geometry" />
        </mxCell>
        <mxCell id="YQpQNmu5JtdZSvHhbprt-86" value="Additional Classifications (Artist, etc.)" style="text;html=1;align=center;verticalAlign=middle;whiteSpace=wrap;rounded=0;fontColor=#B85450;" vertex="1" parent="1">
          <mxGeometry x="914" y="65" width="213" height="30" as="geometry" />
        </mxCell>
        <mxCell id="YQpQNmu5JtdZSvHhbprt-87" value="Most-Confident Album" style="text;html=1;align=center;verticalAlign=middle;whiteSpace=wrap;rounded=0;fontColor=#909090;" vertex="1" parent="1">
          <mxGeometry x="914" y="105" width="136" height="30" as="geometry" />
        </mxCell>
      </root>
    </mxGraphModel>
  </diagram>
</mxfile>
